<svg width="60" height="45" viewBox="0 0 60 45" fill="none" xmlns="http://www.w3.org/2000/svg">
<path d="M28.75 13.75C31.6125 13.75 33.75 11.35 33.75 8.38755V6.60005C33.75 3.63755 31.6125 1.23755 28.75 1.23755C25.8875 1.23755 23.75 3.63755 23.75 6.60005V8.38755C23.75 11.35 25.8875 13.75 28.75 13.75Z" stroke="black" stroke-width="2" stroke-miterlimit="10"/>
<path d="M38.75 22.5V18.7C38.75 15.25 32.4875 13.7 29.375 13.7C26.2625 13.7 20 15.25 20 18.7V22.5" stroke="black" stroke-width="2" stroke-miterlimit="10"/>
<path d="M30 36.25C32.8625 36.25 35 33.85 35 30.8875V29.1C35 26.1376 32.8625 23.7375 30 23.7375C27.1375 23.7375 25 26.1376 25 29.1V30.8875C25 33.85 27.1375 36.25 30 36.25Z" stroke="black" stroke-width="2" stroke-miterlimit="10"/>
<path d="M40 45V41.2C40 37.75 33.7375 36.2 30.625 36.2C27.5125 36.2 21.25 37.75 21.25 41.2V45" stroke="black" stroke-width="2" stroke-miterlimit="10"/>
<path d="M48.75 25.0001C51.6125 25.0001 53.75 22.6 53.75 19.6375V17.85C53.75 14.8875 51.6125 12.4875 48.75 12.4875C45.8875 12.4875 43.75 14.8875 43.75 17.85V19.6375C43.75 22.6 45.8875 25.0001 48.75 25.0001Z" stroke="black" stroke-width="2" stroke-miterlimit="10"/>
<path d="M58.75 33.75V29.95C58.75 26.5 52.4875 24.95 49.375 24.95C46.2625 24.95 40 26.5 40 29.95V33.75" stroke="black" stroke-width="2" stroke-miterlimit="10"/>
<path d="M10 25.0001C12.8625 25.0001 15 22.6 15 19.6375V17.85C15 14.8875 12.8625 12.4875 10 12.4875C7.1375 12.4875 5 14.8875 5 17.85V19.6375C5 22.6 7.1375 25.0001 10 25.0001Z" stroke="black" stroke-width="2" stroke-miterlimit="10"/>
<path d="M20 33.75V29.95C20 26.5 13.7375 24.95 10.625 24.95C7.5125 24.95 1.25 26.5 1.25 29.95V33.75" stroke="black" stroke-width="2" stroke-miterlimit="10"/>
</svg>
