<svg width="59" height="52" viewBox="0 0 59 52" fill="none" xmlns="http://www.w3.org/2000/svg">
<path d="M40.9769 34.9601C50.2198 34.9601 57.7126 27.4239 57.7126 18.1275C57.7126 8.83104 50.2198 1.2948 40.9769 1.2948C31.734 1.2948 24.2411 8.83104 24.2411 18.1275C24.2411 27.4239 31.734 34.9601 40.9769 34.9601Z" stroke="black" stroke-width="2" stroke-linejoin="round"/>
<path d="M16.5169 32.3705C18.6499 32.3705 20.379 30.6314 20.379 28.486C20.379 26.3407 18.6499 24.6016 16.5169 24.6016C14.3839 24.6016 12.6548 26.3407 12.6548 28.486C12.6548 30.6314 14.3839 32.3705 16.5169 32.3705Z" stroke="black" stroke-width="2" stroke-miterlimit="10"/>
<path d="M20.7395 13.3755L18.7441 17.0657C17.4824 16.8197 16.1693 16.7679 14.8691 16.9622L13.0668 13.1813L8.86995 14.7998L10.0543 18.8267C8.96007 19.5647 8.00742 20.4841 7.235 21.5199L3.29566 20.1215L1.4676 24.252L5.13659 26.259C4.89199 27.5279 4.8405 28.8486 5.0336 30.1564L1.27449 31.9691L2.8837 36.1902L6.88741 34.999C7.62121 36.0996 8.53524 37.0578 9.56513 37.8217L8.17477 41.7839L12.2815 43.6225L14.2769 39.9323C15.5385 40.1783 16.8516 40.2301 18.1519 40.0359L19.9542 43.8167L24.151 42.1982L22.9666 38.1713C24.0609 37.4333 25.0135 36.5139 25.7731 35.4781L29.7124 36.8765" stroke="black" stroke-width="2" stroke-linejoin="round"/>
<path d="M44.5043 37.6145C44.5686 38.9741 43.9764 40.3466 42.8178 41.2271C40.9511 42.6384 38.2991 42.25 36.9088 40.3725C36.3295 39.5956 36.0591 38.6763 36.072 37.7828" stroke="black" stroke-width="2" stroke-linejoin="round"/>
<path d="M31.4504 41.1882L28.6696 43.0268L31.0255 46.6394L33.8062 44.8007C34.5529 45.5129 35.4154 46.1215 36.381 46.5617L35.7115 49.8376L39.9212 50.7051L40.5907 47.4292C41.6592 47.4033 42.6891 47.1962 43.6546 46.8336L45.4827 49.6304L49.0744 47.2609L47.2463 44.4641C47.9544 43.7131 48.5595 42.8456 48.9972 41.8744L52.2542 42.5478L53.1167 38.3137L49.8597 37.6404" stroke="black" stroke-width="2" stroke-linejoin="round"/>
<path d="M47.4137 25.8965V23.3068C47.4137 20.7172 43.8734 19.4224 40.9769 19.4224C38.0803 19.4224 34.54 20.7172 34.54 23.3068V25.8965" stroke="black" stroke-width="2" stroke-miterlimit="10"/>
<path d="M40.9769 19.4223C43.2941 19.4223 44.839 17.6872 44.839 15.5378V14.243C44.839 12.0936 43.2941 10.3585 40.9769 10.3585C38.6596 10.3585 37.1148 12.0936 37.1148 14.243V15.5378C37.1148 17.6872 38.6596 19.4223 40.9769 19.4223Z" stroke="black" stroke-width="2" stroke-miterlimit="10"/>
</svg>
