<svg width="80" height="80" viewBox="0 0 80 80" fill="none" xmlns="http://www.w3.org/2000/svg">
<path d="M15.1667 40.7418L15.75 41.3334L16.3417 41.9168L17.6084 40.6501L17.0167 40.0668L16.4334 39.4751L15.1667 40.7418Z" fill="black"/>
<path d="M63.7917 45.0584L47.7667 29.0334L62.1917 14.6084L61.0167 13.4334L45.4167 29.0334L47.6583 31.275L46.25 32.6834H35.05L33.125 30.7584L34.85 29.0334L19.2417 13.425L18.0667 14.6L32.5 29.0334L16.475 45.0584L14.4083 42.9917L13.2333 44.1667L16.475 47.4084L19.2083 44.675L22.525 47.9917C21.925 48.6417 21.55 49.5084 21.55 50.4584C21.55 51.4334 21.9333 52.3417 22.6167 53.0334C23.3 53.7167 24.2167 54.0917 25.1833 54.0917C25.3583 54.0917 25.525 54.0667 25.6917 54.0417C25.6667 54.2084 25.6417 54.375 25.6417 54.55C25.6417 56.5584 27.275 58.1834 29.2833 58.1834C29.4583 58.1834 29.625 58.1584 29.7917 58.1334C29.7667 58.3 29.7417 58.4667 29.7417 58.6417C29.7417 59.6167 30.125 60.525 30.8083 61.2167C31.4917 61.9 32.4083 62.275 33.375 62.275C33.55 62.275 33.7167 62.25 33.8833 62.225C33.8583 62.3917 33.8333 62.5584 33.8333 62.7334C33.8333 63.7084 34.2167 64.6167 34.9 65.3084C35.5833 65.9917 36.5 66.3667 37.4667 66.3667C38.0667 66.3667 38.6417 66.2 39.1583 65.925C39.7833 66.3584 40.5167 66.575 41.25 66.575C42.2 66.575 43.15 66.2084 43.875 65.4834C44.575 64.7834 44.9583 63.85 44.9583 62.8584C44.9583 62.7334 44.9583 62.6084 44.9417 62.4834C45.0667 62.5 45.2 62.5 45.3167 62.5C46.3083 62.5 47.2417 62.1084 47.9417 61.4084C48.6417 60.7084 49.025 59.775 49.025 58.7834C49.025 58.6584 49.025 58.5334 49.0083 58.4084C49.1333 58.4167 49.2667 58.425 49.3833 58.425C50.375 58.425 51.3083 58.0334 52 57.3334C52.7 56.6334 53.0833 55.7 53.0833 54.7084C53.0833 54.5834 53.0833 54.45 53.0667 54.3334C54.1417 54.4417 55.25 54.0834 56.0667 53.2667C56.7667 52.5667 57.15 51.6334 57.15 50.6417C57.15 50.05 56.9917 49.4834 56.7333 48.9667L56.9667 49.2L61.2583 44.9084L63.7583 47.4084L66.7333 44.4334L65.5583 43.2584L63.7583 45.0584H63.7917ZM26.9083 51.4167C26.825 51.575 26.7167 51.7167 26.5917 51.85C26.3 52.1417 25.9333 52.325 25.5333 52.4C25.425 52.4167 25.3083 52.4334 25.2 52.4334C24.1 52.4667 23.225 51.55 23.225 50.4667C23.225 50.35 23.2417 50.2417 23.2583 50.1334C23.3583 49.5417 23.725 49.0417 24.2333 48.75C24.5167 48.5917 24.8417 48.4917 25.1917 48.4834C26.275 48.4834 27.1667 49.3667 27.1667 50.45C27.1667 50.7917 27.075 51.125 26.9083 51.4167ZM31.0083 55.5084C30.725 56.0167 30.225 56.3834 29.6333 56.4917C29.525 56.5084 29.4167 56.525 29.3 56.525C28.2167 56.525 27.325 55.6417 27.325 54.5584C27.325 54.4417 27.3417 54.3334 27.3583 54.225C27.4583 53.6334 27.825 53.1334 28.3333 52.8417C28.6167 52.6834 28.9417 52.575 29.2917 52.575C29.8417 52.5834 30.3167 52.7834 30.6917 53.15C31.0667 53.525 31.2667 54.0167 31.275 54.5417C31.275 54.8917 31.175 55.2167 31.0167 55.5084H31.0083ZM35.1167 59.6C34.8333 60.1084 34.3333 60.475 33.7417 60.5834C33.6333 60.6 33.525 60.6167 33.4083 60.6167C32.8833 60.6167 32.3917 60.4084 32.0167 60.0417C31.6417 59.6667 31.4333 59.175 31.4333 58.65C31.4333 58.5334 31.45 58.425 31.4667 58.3167C31.5333 57.9167 31.7167 57.55 32.0083 57.2584C32.1333 57.1334 32.2833 57.025 32.4417 56.9417C32.7333 56.775 33.0583 56.6834 33.4 56.6834C33.925 56.6834 34.4167 56.8917 34.7917 57.2584C35.1667 57.6334 35.3667 58.125 35.375 58.65C35.375 59 35.275 59.325 35.1167 59.6084V59.6ZM39.2167 63.7C38.9333 64.2084 38.4333 64.575 37.8417 64.6834C37.7333 64.7 37.625 64.7167 37.5083 64.7167C36.9833 64.7167 36.4917 64.5084 36.1167 64.1417C35.7417 63.7667 35.5333 63.275 35.5333 62.75C35.5333 62.6334 35.55 62.525 35.5667 62.4167C35.6667 61.825 36.0333 61.325 36.5417 61.0334C36.825 60.875 37.15 60.775 37.5 60.775C38.5917 60.8084 39.475 61.6584 39.475 62.7417C39.475 63.0917 39.375 63.4167 39.2167 63.7ZM54.9167 52.1084C54.125 52.9084 52.825 52.9084 52.025 52.1084L52.0083 52.125L49.1667 49.2917L47.9917 50.475L50.9417 53.4167C51.2583 53.775 51.4417 54.2417 51.4417 54.7334C51.4417 55.275 51.2333 55.7917 50.85 56.175C50.4667 56.5584 49.95 56.775 49.4083 56.775C48.8667 56.8 48.35 56.5667 47.9667 56.175L45.125 53.3417L43.95 54.525L46.7917 57.3584C47.175 57.7417 47.3917 58.2584 47.3917 58.8C47.3917 59.35 47.1833 59.8584 46.8 60.25C46.4167 60.6417 45.9 60.85 45.3583 60.85C44.8667 60.85 44.4083 60.6667 44.0417 60.3584L44.0583 60.3417L41.1083 57.4L39.9333 58.5834L42.775 61.4167L42.75 61.4417C43.1333 61.825 43.35 62.3417 43.35 62.8834C43.35 63.425 43.1417 63.9417 42.7583 64.325C42.1583 64.925 41.275 65.075 40.5417 64.775C40.95 64.175 41.1667 63.475 41.1667 62.7334C41.1667 60.725 39.5083 59.1167 37.5167 59.1C37.3417 59.1 37.175 59.125 37.0083 59.15C37.0333 58.9834 37.0583 58.8167 37.0583 58.6417C37.0583 57.6667 36.675 56.7584 35.9917 56.0667C35.3 55.3834 34.3917 55.0084 33.4167 55.0084C33.2417 55.0084 33.075 55.0334 32.9083 55.0584C32.9333 54.8917 32.9583 54.725 32.9583 54.55C32.9583 53.575 32.575 52.6667 31.8833 51.975C31.1917 51.2917 30.275 50.9167 29.3083 50.9167C29.1333 50.9167 28.9667 50.9417 28.8 50.9667C28.825 50.8 28.85 50.6334 28.85 50.4584C28.85 48.45 27.2167 46.825 25.2083 46.825C24.7667 46.825 24.35 46.9167 23.9583 47.0584L20.4083 43.5084L31.9667 31.95L34.375 34.3667H38.175L29.6583 42.9167L31.3333 44.5834C33.275 46.5167 36.4333 46.5167 38.3667 44.575L41.225 41.7084C41.6583 41.275 42.2417 41.0584 42.9917 41.0584L46.7667 41.075L54.9333 49.2167C55.3167 49.6 55.5333 50.1167 55.5333 50.6584C55.5333 51.2084 55.325 51.7167 54.9417 52.1084H54.9167ZM55.975 47.9L47.4583 39.4167L42.9917 39.4C41.7833 39.4 40.7917 39.7834 40.0417 40.5417L37.1833 43.4084C35.9 44.7 33.8 44.7 32.5083 43.4167L32.0083 42.925L40.525 34.375H46.95L48.85 32.475L60.125 43.75L55.975 47.9Z" fill="black"/>
<path d="M63.1584 40.0668L62.575 40.6501L63.8417 41.9168L64.425 41.3334L65.0167 40.7418L63.75 39.4751L63.1584 40.0668Z" fill="black"/>
</svg>
