<svg width="56" height="43" viewBox="0 0 56 43" fill="none" xmlns="http://www.w3.org/2000/svg">
<path d="M17 -2.0142e-06L0 16.9319L17 33.8639L34 16.9319L17 -2.0142e-06Z" fill="#126149"/>
<path d="M28.7085 14.0284V23.4407" stroke="white" stroke-width="1.44" stroke-linecap="round" stroke-linejoin="round"/>
<path d="M12.9863 23.4407H45.669" stroke="white" stroke-width="1.44" stroke-linecap="round" stroke-linejoin="round"/>
<path d="M15.1788 36.7596H13.9536C12.8831 36.7596 11.9415 35.857 11.9415 34.7482V22.8733L13.515 14.8407C13.7343 13.7577 14.8306 12.7133 15.9398 12.7133C33.9579 12.7133 27.9346 12.8293 37.092 12.6746C39.7747 12.6359 41.9028 22.6155 44.4953 23.1828L52.6466 24.975C54.4652 25.3747 55.0843 27.2055 55.0843 27.876V34.7353C55.0843 35.8184 53.7429 36.7467 52.6595 36.7467H50.2992" stroke="white" stroke-width="1.44" stroke-linecap="round" stroke-linejoin="round"/>
<path d="M38.7042 36.7596H26.0516" stroke="white" stroke-width="1.44" stroke-linecap="round" stroke-linejoin="round"/>
<path d="M13.7343 9.92833H36.9372" stroke="white" stroke-width="1.44" stroke-linecap="round" stroke-linejoin="round"/>
<path d="M20.5959 34.8642C21.7051 34.8642 22.595 35.7539 22.595 36.8627C22.595 37.9716 21.7051 38.8612 20.5959 38.8612C19.4867 38.8612 18.5967 37.9716 18.5967 36.8627C18.5967 35.7539 19.4867 34.8642 20.5959 34.8642Z" stroke="white" stroke-width="1.44" stroke-linecap="round" stroke-linejoin="round"/>
<path d="M44.2631 34.8642C45.3723 34.8642 46.2623 35.7539 46.2623 36.8627C46.2623 37.9716 45.3723 38.8612 44.2631 38.8612C43.1539 38.8612 42.264 37.9716 42.264 36.8627C42.264 35.7539 43.1539 34.8642 44.2631 34.8642Z" stroke="white" stroke-width="1.44" stroke-linecap="round" stroke-linejoin="round"/>
<path d="M44.2631 31.6667C47.1393 31.6667 49.4738 34.0004 49.4738 36.8756C49.4738 39.7509 47.1393 42.0846 44.2631 42.0846C41.3869 42.0846 39.0524 39.7509 39.0524 36.8756C39.0524 34.0004 41.3869 31.6667 44.2631 31.6667Z" stroke="white" stroke-width="1.44" stroke-linecap="round" stroke-linejoin="round"/>
<path d="M20.5959 31.6667C23.472 31.6667 25.8065 34.0004 25.8065 36.8756C25.8065 39.7509 23.472 42.0846 20.5959 42.0846C17.7197 42.0846 15.3852 39.7509 15.3852 36.8756C15.3852 34.0004 17.7197 31.6667 20.5959 31.6667Z" stroke="white" stroke-width="1.44" stroke-linecap="round" stroke-linejoin="round"/>
</svg>
