<svg width="46" height="45" viewBox="0 0 46 45" fill="none" xmlns="http://www.w3.org/2000/svg">
<path d="M17 11L0 27.9319L17 44.8639L34 27.9319L17 11Z" fill="#B2CB07"/>
<path d="M20.1739 6.90698H13.1304C11.8 6.90698 10.7826 7.91233 10.7826 9.20931" stroke="white" stroke-width="1.5" stroke-linecap="round" stroke-linejoin="round"/>
<path d="M39.7391 11.5116V6.90698H32.6956" stroke="white" stroke-width="1.5" stroke-linecap="round" stroke-linejoin="round"/>
<path d="M37.3913 11.5116L26.4348 0.767441L15.4783 11.5116" stroke="white" stroke-width="1.5" stroke-linecap="round" stroke-linejoin="round"/>
<path d="M31.913 11.5116L28.1017 7.75116C26.9983 8.83325 25.8869 8.84093 24.7835 7.75116L20.9565 11.5116" stroke="white" stroke-width="1.5" stroke-linecap="round" stroke-linejoin="round"/>
<path d="M43.6522 26.093V32.2326H13.1304C11.8 32.2326 10.7826 31.2272 10.7826 29.9302V9.2093C10.7826 10.5063 11.8 11.5116 13.1304 11.5116H43.6522V16.8837" stroke="white" stroke-width="1.5" stroke-linecap="round" stroke-linejoin="round"/>
<path d="M34.2609 18.4186C31.8818 18.4186 30.3478 20.1377 30.3478 22.2558C30.3478 24.374 31.8818 26.093 34.2609 26.093H42.8696C44.1687 26.093 45.2174 25.0647 45.2174 23.7907V17.6512C45.2174 17.2291 44.8652 16.8837 44.4348 16.8837H43.6522C43.6522 17.6972 42.7991 18.4186 42.087 18.4186H34.2609Z" stroke="white" stroke-width="1.5" stroke-linecap="round" stroke-linejoin="round"/>
<path d="M33.4783 22.2558H35.0435" stroke="white" stroke-width="1.5" stroke-miterlimit="10"/>
</svg>
