<svg width="60" height="39" viewBox="0 0 60 39" fill="none" xmlns="http://www.w3.org/2000/svg">
<path d="M17 0.999998L0 17.9319L17 34.8639L34 17.9319L17 0.999998Z" fill="#126149"/>
<path d="M40.7449 26.3961L46.1009 23.5421C47.3625 22.8647 49.8192 21.8542 49.8302 24.375L50.7377 23.7531C53.2718 22.0097 55.2084 23.2423 54.2567 25.652C58.7606 22.365 60.3541 26.5293 58.3511 27.551L48.3695 33.8696L44.1422 36.5458C41.1544 38.4448 37.2038 38.467 36.0861 37.8007C29.7784 36.1683 27.9525 34.6136 22.4526 35.3243" stroke="white" stroke-width="1.44" stroke-linecap="round" stroke-linejoin="round"/>
<path d="M19.7968 24.053L26.3258 21.3878C27.9857 20.7104 29.8559 20.8881 30.553 21.41C31.726 22.2873 32.9101 23.1646 34.0831 24.0419C38.9854 27.6842 39.3838 26.7736 45.1603 27.129C46.444 27.2067 47.285 29.2722 45.1603 30.094C39.7711 32.5703 36.4402 31.4599 31.5158 28.928" stroke="white" stroke-width="1.44" stroke-linecap="round" stroke-linejoin="round"/>
<path d="M39.4945 3.20929V5.26367" stroke="white" stroke-width="1.44" stroke-linecap="round" stroke-linejoin="round"/>
<path d="M39.4945 13.9698V15.9021" stroke="white" stroke-width="1.44" stroke-linecap="round" stroke-linejoin="round"/>
<path d="M39.4945 0.799545C44.43 0.799545 48.4359 4.81948 48.4359 9.77221C48.4359 14.7249 44.43 18.7449 39.4945 18.7449C34.559 18.7449 30.553 14.7249 30.553 9.77221C30.553 4.81948 34.559 0.799545 39.4945 0.799545Z" stroke="white" stroke-width="1.44" stroke-linecap="round" stroke-linejoin="round"/>
<path d="M42.2831 6.57403C41.3978 6.2742 40.6011 5.99658 39.8043 5.90774C35.4885 5.41913 34.9352 9.78331 39.5277 9.7611C43.9873 9.74999 43.5668 14.1142 39.251 13.6145C38.4543 13.5256 37.6575 13.248 36.7722 12.9482" stroke="white" stroke-width="1.44" stroke-linecap="round" stroke-linejoin="round"/>
</svg>
