<svg width="55" height="38" viewBox="0 0 55 38" fill="none" xmlns="http://www.w3.org/2000/svg">
<path d="M17 4L0 20.9319L17 37.8639L34 20.9319L17 4Z" fill="#B2CB07"/>
<path d="M18.3855 17.6648C15.4699 13.0112 14.5301 8.06076 18.6988 3.94134C20.7952 1.88757 23.5301 0.854752 26.2771 0.854752C35.4096 0.854752 33.8313 6.95671 35.0121 8.12012C36.1928 6.95671 34.6145 0.854752 43.747 0.854752C46.4819 0.854752 49.2289 1.88757 51.3133 3.94134C61.506 13.9846 41.1928 29.0377 36.1205 32.4686C34.747 33.3946 35.2169 33.3589 33.7711 32.3855C31.8313 31.0677 27.9036 28.2186 24.2289 24.6453" stroke="white" stroke-width="1.44" stroke-linecap="round" stroke-linejoin="round"/>
<path d="M15.8675 20.7989H24.1928L26.3735 8.01328L28.8916 20.7989H32.4337L34.6145 26.8534C36.6024 21.6418 37.9036 18.3177 39.5904 12.7144L42.0121 20.787H49.2771" stroke="white" stroke-width="1.44" stroke-linecap="round" stroke-linejoin="round"/>
</svg>
