<svg width="53" height="37" viewBox="0 0 53 37" fill="none" xmlns="http://www.w3.org/2000/svg">
<path d="M17 3L0 19.9319L17 36.8639L34 19.9319L17 3Z" fill="#126149"/>
<path d="M25.4013 8.04711C26.8099 8.36023 30.7645 9.22652 32.1732 9.53964L32.7888 8.92384L35.5747 6.1371" stroke="white" stroke-width="1.44" stroke-linecap="round" stroke-linejoin="round"/>
<path d="M32.1732 9.5292C33.467 9.811 37.3173 10.6669 38.6111 10.9487L40.8962 8.66291L43.1813 6.37715L45.4664 4.0914L47.7516 1.80564C48.0542 1.50296 48.3776 1.27334 48.7324 1.09591C49.0767 0.928914 49.4419 0.814104 49.7862 0.772355C50.141 0.730606 50.4853 0.761918 50.7984 0.855853C51.1114 0.949788 51.4036 1.11678 51.6331 1.35684C51.8731 1.5969 52.0296 1.8787 52.134 2.19182C52.2279 2.50494 52.2592 2.84936 52.2174 3.20423C52.1757 3.5591 52.0714 3.91396 51.894 4.25839C51.727 4.60282 51.487 4.93681 51.1844 5.23949L48.8993 7.52525L46.6142 9.811L44.3291 12.0968L42.044 14.3825C42.3257 15.6767 42.6179 16.9709 42.8996 18.2652L43.4631 20.8118" stroke="white" stroke-width="1.44" stroke-linecap="round" stroke-linejoin="round"/>
<path d="M46.5934 17.6807L44.0683 20.2065L43.4526 20.8223C43.7657 22.2313 44.0683 23.6403 44.3813 25.0494L44.9447 27.5961" stroke="white" stroke-width="1.44" stroke-linecap="round" stroke-linejoin="round"/>
<path d="M48.8054 23.7343L45.5395 27.0011L44.9447 27.5961C45.289 29.1512 45.6334 30.7168 45.9777 32.2719C46.1447 33.0339 46.1342 34.0149 45.5812 34.5681L44.8404 35.3092L44.0995 36.0502C43.1083 37.0417 42.0648 34.0254 41.4597 32.752C39.6024 28.7963 37.7972 24.9346 35.7625 21.0519C32.9661 23.2646 30.6497 25.7695 28.1351 28.2849C28.2498 29.3808 28.3542 30.4872 28.469 31.5831C28.5316 32.1571 28.4168 32.846 27.9994 33.2635L27.4151 33.848C26.5908 34.6725 26.1526 34.7456 25.6517 33.5453C25.0465 32.0736 24.4518 30.6124 23.8466 29.1408C22.3753 28.5354 20.9145 27.9405 19.4433 27.3351C18.2329 26.8341 18.306 26.3958 19.1407 25.5712L19.725 24.9867C20.132 24.5797 21.1754 24.5693 21.405 24.5171C22.5006 24.6319 23.6066 24.7362 24.7022 24.8511C27.2482 22.3044 29.3872 19.7577 31.9332 17.211C28.0516 15.1862 24.1909 13.3805 20.2363 11.5123C18.9633 10.9173 15.9478 9.87363 16.9391 8.87165L17.6799 8.13061L18.4207 7.38956C18.8172 6.99295 19.9546 6.82595 20.7163 6.99295C22.271 7.33738 23.8361 7.68181 25.3909 8.02624L25.9856 7.43131L28.542 4.87419" stroke="white" stroke-width="1.44" stroke-linecap="round" stroke-linejoin="round"/>
</svg>
