<svg width="51" height="49" viewBox="0 0 51 49" fill="none" xmlns="http://www.w3.org/2000/svg">
<path d="M17 -2.0142e-06L0 16.9319L17 33.8639L34 16.9319L17 -2.0142e-06Z" fill="#B2CB07"/>
<g clip-path="url(#clip0_183_684)">
<path d="M50.4224 14.803C50.1031 14.803 49.8447 15.0614 49.8447 15.3807V48.4224C49.8447 48.7416 50.1031 49 50.4224 49C50.7416 49 51 48.7416 51 48.4224V15.3807C51 15.0614 50.7416 14.803 50.4224 14.803Z" fill="white" stroke="white" stroke-width="0.5"/>
<path d="M50.4224 12H17.3807C17.0614 12 16.803 12.2584 16.803 12.5769C16.803 12.8955 17.0614 13.1546 17.3807 13.1546H50.4224C50.7416 13.1546 51 12.8962 51 12.5776C51 12.2591 50.7409 12 50.4224 12Z" fill="white" stroke="white" stroke-width="0.5"/>
<path d="M47.6193 47.8447H28.318C28.3065 47.6658 28.2908 47.4868 28.2693 47.31C28.255 47.1912 28.1469 47.1067 28.0281 47.121C27.9093 47.1354 27.8248 47.2434 27.8391 47.3623C27.8606 47.5376 27.8763 47.7159 27.8871 47.8941C27.6838 47.9836 27.5421 48.1861 27.5421 48.4224C27.5421 48.7416 27.8005 49 28.1197 49H47.6193C47.9385 49 48.197 48.7416 48.197 48.4224C48.197 48.1031 47.9385 47.8447 47.6193 47.8447Z" fill="white" stroke="white" stroke-width="0.5"/>
<path d="M14 12.5776V45.6193C14 45.9386 14.2584 46.197 14.5776 46.197C14.8969 46.197 15.1553 45.9386 15.1553 45.6193V12.5776C15.1553 12.2584 14.8962 12 14.5776 12C14.2591 12 14 12.2584 14 12.5776Z" fill="white" stroke="white" stroke-width="0.5"/>
<path d="M47.6193 29.922H33.1238V21.2201C33.1238 20.9009 32.8654 20.6425 32.5462 20.6425C32.2269 20.6425 31.9685 20.9009 31.9685 21.2201V39.7792C31.9685 40.0984 32.2269 40.3568 32.5462 40.3568C32.8654 40.3568 33.1238 40.0984 33.1238 39.7792V31.0773H47.6193C47.9385 31.0773 48.1969 30.8189 48.1969 30.4996C48.1969 30.1804 47.9385 29.922 47.6193 29.922Z" fill="white" stroke="white" stroke-width="0.5"/>
<path d="M22.412 39.8371C22.067 39.7062 21.7112 39.5959 21.3534 39.5079C21.2374 39.4792 21.12 39.5501 21.0914 39.6668C21.0627 39.7827 21.1336 39.9001 21.2503 39.9288C21.591 40.0125 21.9303 40.1177 22.2588 40.2423C22.2839 40.2516 22.3104 40.2566 22.3354 40.2566C22.4227 40.2566 22.5051 40.2036 22.538 40.117C22.5802 40.0054 22.5244 39.8801 22.412 39.8379V39.8371Z" fill="white" stroke="white" stroke-width="0.5"/>
<path d="M20.2632 39.3089C20.0792 39.2867 19.8931 39.2702 19.707 39.2595C19.6254 39.0398 19.4143 38.883 19.1666 38.883C18.8473 38.883 18.5889 39.1414 18.5889 39.4606V47.8447H14.5776C14.2584 47.8447 14 48.1031 14 48.4224C14 48.7416 14.2584 49 14.5776 49H19.1659C19.4851 49 19.7435 48.7416 19.7435 48.4224V39.6969C19.9003 39.7076 20.0563 39.7212 20.2116 39.7398C20.2202 39.7405 20.2288 39.7412 20.2374 39.7412C20.3455 39.7412 20.4393 39.6603 20.4521 39.5508C20.4665 39.432 20.382 39.3239 20.2632 39.3103V39.3089Z" fill="white" stroke="white" stroke-width="0.5"/>
<path d="M24.3711 40.8665C24.0676 40.6567 23.7484 40.4635 23.4227 40.2924C23.3168 40.2366 23.1858 40.2774 23.1299 40.3833C23.0741 40.4892 23.1149 40.6202 23.2208 40.6761C23.5308 40.8393 23.835 41.0232 24.1242 41.2229C24.1614 41.2487 24.2043 41.2616 24.2473 41.2616C24.316 41.2616 24.3833 41.2287 24.4255 41.1685C24.4935 41.0697 24.4692 40.9352 24.3704 40.8672L24.3711 40.8665Z" fill="white" stroke="white" stroke-width="0.5"/>
<path d="M27.8599 46.4883C27.8771 46.4883 27.8942 46.4861 27.9121 46.4819C28.0281 46.4532 28.099 46.3358 28.0703 46.2199C27.9823 45.862 27.8713 45.5062 27.7403 45.1619C27.6981 45.0503 27.5728 44.9944 27.4612 45.0367C27.3495 45.0789 27.293 45.2042 27.3359 45.3158C27.4605 45.6437 27.5664 45.9829 27.6502 46.3237C27.6745 46.4224 27.7632 46.4883 27.8606 46.4883H27.8599Z" fill="white" stroke="white" stroke-width="0.5"/>
<path d="M26.7103 43.2049C26.6423 43.1062 26.507 43.0818 26.409 43.1498C26.3109 43.2178 26.2859 43.3531 26.3539 43.4512C26.5536 43.7396 26.7375 44.0431 26.9007 44.3538C26.9394 44.4275 27.0145 44.4698 27.0926 44.4698C27.1269 44.4698 27.1613 44.4619 27.1935 44.4447C27.2994 44.3889 27.3402 44.2579 27.2844 44.1519C27.1133 43.8263 26.9201 43.5077 26.7103 43.2049Z" fill="white" stroke="white" stroke-width="0.5"/>
<path d="M25.243 41.55C25.1535 41.4706 25.0168 41.4792 24.9373 41.5687C24.8579 41.6581 24.8665 41.7948 24.9559 41.8743C25.2186 42.1069 25.4699 42.3582 25.7025 42.6209C25.7455 42.6688 25.8049 42.6939 25.8643 42.6939C25.9151 42.6939 25.9666 42.676 26.0081 42.6395C26.0976 42.56 26.1055 42.4233 26.0268 42.3338C25.782 42.0583 25.5185 41.7948 25.243 41.5508V41.55Z" fill="white" stroke="white" stroke-width="0.5"/>
</g>
<defs>
<clipPath id="clip0_183_684">
<rect width="37" height="37" fill="white" transform="translate(14 12)"/>
</clipPath>
</defs>
</svg>
