<svg width="34" height="33" viewBox="0 0 34 33" fill="none" xmlns="http://www.w3.org/2000/svg">
<g clip-path="url(#clip0_110_1036)">
<path d="M19.1691 19.2286C20.5677 19.8693 22.0839 20.1878 23.6002 20.1878C26.2617 20.1878 28.9267 19.2009 30.9568 17.2306C32.9868 15.2603 34.0036 12.6737 34.0036 10.0939C34.0036 7.5107 32.9868 4.92749 30.9568 2.95719C28.9267 0.986883 26.2617 0 23.6002 0C20.9387 0 18.2772 0.986883 16.2472 2.95719C14.2172 4.92749 13.2004 7.51416 13.2004 10.0939C13.2004 11.5621 13.5286 13.0338 14.1851 14.3912C14.31 14.6509 14.631 14.7617 14.8986 14.6405C15.1662 14.5193 15.2804 14.2077 15.1555 13.948C14.5668 12.7325 14.2707 11.4132 14.2707 10.0939C14.2707 7.77387 15.1805 5.46075 17.0036 3.69129C18.8266 1.92183 21.2099 1.03882 23.6002 1.03882C25.9905 1.03882 28.3738 1.92183 30.1968 3.69129C32.0199 5.46075 32.9297 7.77387 32.9297 10.0939C32.9297 12.414 32.0199 14.7271 30.1968 16.4965C28.3738 18.266 25.987 19.149 23.5966 19.149C22.2373 19.149 20.8745 18.8616 19.6222 18.2868C19.3547 18.1656 19.0371 18.2764 18.9087 18.5361C18.7838 18.7958 18.898 19.104 19.1656 19.2286H19.1691Z" fill="white"/>
<path d="M14.2779 13.8475L0.57083 27.1549C0.481638 27.2414 0.424555 27.3592 0.413852 27.4804L1.02585e-06 32.439C-0.0249727 32.7264 0.196223 32.9757 0.488773 33C0.784891 33.0242 1.04176 32.8095 1.06674 32.5256L1.46632 27.7539L15.0378 14.5851C15.2483 14.3808 15.2483 14.0518 15.0378 13.851C14.8273 13.6467 14.4884 13.6467 14.2814 13.851L14.2779 13.8475Z" fill="white"/>
<path d="M0.577968 33.0001L5.68689 32.5984H5.70473L6.00441 32.5638L7.49927 32.4668L7.46359 31.9474V32.4668C7.86317 32.4668 8.18426 32.1551 8.18426 31.7673V30.1364H7.64911L8.02729 30.5034L8.07723 30.4549L7.69906 30.0879L7.56705 30.59C7.56705 30.59 7.64911 30.6211 7.79539 30.6246H11.5058C11.7591 30.6246 11.9945 30.5242 12.1587 30.3614C12.3263 30.2022 12.4298 29.9736 12.4298 29.7243V26.123C12.4298 26.0503 12.4155 25.9915 12.4084 25.9534C12.3977 25.9153 12.3941 25.898 12.3941 25.898L11.8768 26.033L12.255 26.4001L12.4262 26.2338L12.0481 25.8668L11.9196 26.3724L11.9339 26.3169L11.9196 26.3724L11.9339 26.3169L11.9196 26.3724C11.9196 26.3724 12.0017 26.4035 12.1408 26.407H12.1551L12.1408 25.9014L12.1337 26.407H12.1515L12.1373 25.9014L12.1301 26.407L12.1373 25.891L12.0695 26.4001H12.1301L12.1373 25.891L12.0695 26.4001H15.8476C16.3578 26.4035 16.7752 26.0018 16.7752 25.5067V21.9054C16.7752 21.8292 16.761 21.7704 16.7538 21.7323L16.7431 21.6942V21.6838L16.2222 21.8119L16.6004 22.179L19.69 19.1802C19.9005 18.9759 19.9005 18.647 19.69 18.4461C19.4795 18.2453 19.1406 18.2418 18.9337 18.4461L15.8441 21.4449C15.7085 21.5764 15.6586 21.7634 15.7049 21.94L15.7156 21.9747V21.9816L16.0296 21.9019H15.7085C15.7085 21.9504 15.7192 21.9781 15.7192 21.9816L16.0296 21.9019H15.7085V25.5067H15.8512V25.3682C15.7727 25.3682 15.7085 25.4305 15.7085 25.5067H15.8512V25.3682H12.1408V25.8876L12.2086 25.3716C12.1729 25.3682 12.148 25.3682 12.1337 25.3682H12.1266L12.1408 25.8737V25.3682H12.1266L12.1408 25.8737V25.6937L12.2229 25.3751C12.2229 25.3751 12.1872 25.3647 12.1408 25.3647V25.6902L12.2229 25.3716L12.1765 25.3578C11.9945 25.3162 11.8019 25.3682 11.6699 25.4963L11.4986 25.6625C11.3631 25.7941 11.3096 25.9845 11.3595 26.1646L11.3702 26.1958L11.677 26.123H11.3595C11.3595 26.1681 11.3666 26.1992 11.3702 26.1992L11.677 26.123H11.3595V29.7243H11.5022V29.5823C11.4237 29.5823 11.3595 29.6447 11.3595 29.7243H11.5022V29.5823H7.79182V29.8905L7.86317 29.5892C7.86317 29.5892 7.83106 29.5823 7.79182 29.5823V29.8905L7.86317 29.5892L7.8489 29.655L7.86674 29.5892L7.85247 29.655L7.87031 29.5892L7.83463 29.5789C7.65268 29.5338 7.45646 29.5858 7.32445 29.7139L7.2745 29.7624C7.17461 29.8593 7.11753 29.9944 7.11753 30.1294V31.7604H7.46716V31.421C7.27451 31.421 7.1211 31.5699 7.11753 31.7604H7.46716V31.421H7.43148L5.92592 31.5215H5.90095L5.59769 31.5561L0.495911 31.9578C0.199794 31.982 -0.0178347 32.2313 0.00713909 32.5187C0.0321129 32.8061 0.288986 33.0174 0.585103 32.9931L0.577968 33.0001Z" fill="white"/>
<path d="M29.2407 15.5686L29.4298 15.7521C31.0388 14.1904 31.8451 12.1405 31.8451 10.094C31.8451 8.04748 31.0388 5.99753 29.4298 4.43583C27.8208 2.87413 25.7087 2.09155 23.6002 2.09155C21.4917 2.09155 19.3796 2.87413 17.7706 4.43583C16.1616 5.99753 15.3553 8.04748 15.3553 10.094C15.3553 12.1405 16.1616 14.1904 17.7706 15.7521C19.3796 17.3138 21.4917 18.0964 23.6002 18.0964C25.7087 18.0964 27.8208 17.3138 29.4298 15.7521L29.2407 15.5686L29.0516 15.385C27.5461 16.8463 25.5731 17.577 23.6002 17.577C21.6273 17.577 19.6543 16.8463 18.1488 15.385C16.6432 13.9238 15.8904 12.0089 15.8904 10.094C15.8904 8.17907 16.6432 6.26417 18.1488 4.80289C19.6543 3.34161 21.6273 2.61097 23.6002 2.61097C25.5731 2.61097 27.5461 3.34161 29.0516 4.80289C30.5572 6.26417 31.31 8.17907 31.31 10.094C31.31 12.0089 30.5572 13.9238 29.0516 15.385L29.2407 15.5686Z" fill="white"/>
<path d="M27.835 8.88883L28.2132 9.25588C28.7305 8.75378 28.991 8.09239 28.991 7.43793C28.991 6.78001 28.7305 6.11863 28.2132 5.61999C27.6959 5.11789 27.0145 4.86511 26.3402 4.86511C25.6623 4.86511 24.9809 5.11789 24.4671 5.61999C23.9498 6.12209 23.6894 6.78348 23.6894 7.43793C23.6894 8.09586 23.9498 8.75724 24.4671 9.25588C24.9845 9.75798 25.6659 10.0108 26.3402 10.0108C27.018 10.0108 27.6995 9.75798 28.2132 9.25588L27.835 8.88883L27.4569 8.52178C27.1465 8.82304 26.7433 8.97193 26.3402 8.97193C25.9335 8.97193 25.5339 8.82304 25.2235 8.52178C24.9131 8.22052 24.7597 7.83269 24.7597 7.43793C24.7597 7.04318 24.9131 6.65535 25.2235 6.35409C25.5339 6.05284 25.9335 5.90394 26.3402 5.90394C26.7469 5.90394 27.1465 6.05284 27.4569 6.35409C27.7673 6.65535 27.9207 7.04318 27.9207 7.43793C27.9207 7.83269 27.7673 8.22052 27.4569 8.52178L27.835 8.88883Z" fill="white"/>
<path d="M15.3553 15.6967L2.77566 27.9063C2.67219 28.0067 2.67219 28.1729 2.77566 28.2734C2.87912 28.3738 3.05037 28.3738 3.15383 28.2734L15.7335 16.0637C15.8369 15.9633 15.8369 15.7971 15.7335 15.6967C15.63 15.5962 15.4588 15.5962 15.3553 15.6967Z" fill="white"/>
</g>
<defs>
<clipPath id="clip0_110_1036">
<rect width="34" height="33" fill="white"/>
</clipPath>
</defs>
</svg>
