<svg width="40" height="34" viewBox="0 0 40 34" fill="none" xmlns="http://www.w3.org/2000/svg">
<path d="M3.38554 17.6648C0.469877 13.0112 -0.469882 8.06074 3.69879 3.94133C5.79518 1.88756 8.53012 0.854736 11.2771 0.854736C20.4096 0.854736 18.8313 6.95669 20.012 8.1201C21.1928 6.95669 19.6145 0.854736 28.747 0.854736C31.4819 0.854736 34.2289 1.88756 36.3132 3.94133C46.506 13.9846 26.1928 29.0377 21.1205 32.4686C19.747 33.3945 20.2169 33.3589 18.7711 32.3855C16.8313 31.0677 12.9036 28.2186 9.22891 24.6452" stroke="white" stroke-width="1.44" stroke-linecap="round" stroke-linejoin="round"/>
<path d="M0.86747 20.7989H9.19277L11.3735 8.01331L13.8916 20.7989H17.4337L19.6145 26.8534C21.6024 21.6418 22.9036 18.3178 24.5904 12.7144L27.012 20.787H34.2771" stroke="white" stroke-width="1.44" stroke-linecap="round" stroke-linejoin="round"/>
</svg>
