<svg width="41" height="39" viewBox="0 0 41 39" fill="none" xmlns="http://www.w3.org/2000/svg">
<path d="M21.7449 26.396L27.1009 23.5421C28.3625 22.8647 30.8192 21.8542 30.8302 24.375L31.7377 23.7531C34.2718 22.0096 36.2084 23.2423 35.2567 25.652C39.7606 22.365 41.3541 26.5293 39.3512 27.5509L29.3695 33.8696L25.1422 36.5458C22.1544 38.4447 18.2038 38.4669 17.0861 37.8007C10.7784 36.1682 8.9525 34.6136 3.45264 35.3243" stroke="white" stroke-width="1.44" stroke-linecap="round" stroke-linejoin="round"/>
<path d="M0.796753 24.0529L7.32577 21.3878C8.98569 20.7104 10.8559 20.8881 11.553 21.41C12.726 22.2873 13.9101 23.1645 15.0831 24.0418C19.9854 27.6842 20.3838 26.7736 26.1603 27.1289C27.444 27.2067 28.285 29.2722 26.1603 30.0939C20.7711 32.5703 17.4402 31.4598 12.5158 28.9279" stroke="white" stroke-width="1.44" stroke-linecap="round" stroke-linejoin="round"/>
<path d="M20.4945 3.20923V5.26361" stroke="white" stroke-width="1.44" stroke-linecap="round" stroke-linejoin="round"/>
<path d="M20.4945 13.9698V15.9021" stroke="white" stroke-width="1.44" stroke-linecap="round" stroke-linejoin="round"/>
<path d="M20.4945 0.799561C25.43 0.799561 29.4359 4.81949 29.4359 9.77222C29.4359 14.725 25.43 18.7449 20.4945 18.7449C15.559 18.7449 11.553 14.725 11.553 9.77222C11.553 4.81949 15.559 0.799561 20.4945 0.799561Z" stroke="white" stroke-width="1.44" stroke-linecap="round" stroke-linejoin="round"/>
<path d="M23.2831 6.57409C22.3978 6.27426 21.6011 5.99664 20.8043 5.9078C16.4885 5.41919 15.9352 9.78337 20.5277 9.76116C24.9873 9.75005 24.5668 14.1142 20.251 13.6145C19.4543 13.5257 18.6575 13.2481 17.7722 12.9482" stroke="white" stroke-width="1.44" stroke-linecap="round" stroke-linejoin="round"/>
</svg>
