<svg width="53" height="59" viewBox="0 0 53 59" fill="none" xmlns="http://www.w3.org/2000/svg">
<path d="M50.2743 25.9048C52.1009 17.9062 51.931 11.754 51.931 11.754L26.5 1.0451L1.06911 11.754C1.06911 11.754 0.977073 15.2516 1.71338 20.4006" stroke="white" stroke-width="2" stroke-linecap="round" stroke-linejoin="round"/>
<path d="M9.62158 43.0237C13.3739 48.9529 18.7617 54.4015 26.5 57.9548C33.7994 54.6035 39.0102 49.5661 42.72 44.034" stroke="white" stroke-width="2" stroke-linecap="round" stroke-linejoin="round"/>
<path d="M1.70605 20.4005C1.87597 21.6059 2.09545 22.8948 2.37156 24.2535" stroke="white" stroke-width="2" stroke-linecap="round" stroke-linejoin="round"/>
<path d="M42.4155 32.6074C44.6527 32.6213 46.4581 34.4259 46.444 36.6206C46.4298 38.8223 44.5961 40.599 42.3659 40.5851C40.1287 40.5711 38.3233 38.7666 38.3375 36.5718C38.3516 34.3701 40.1853 32.5934 42.4155 32.6074Z" stroke="white" stroke-width="2" stroke-linecap="round" stroke-linejoin="round"/>
<path d="M12.312 32.4054C14.5492 32.4193 16.3546 34.2238 16.3404 36.4186C16.3263 38.6203 14.4926 40.397 12.2624 40.383C10.0252 40.3691 8.21981 38.5645 8.23397 36.3698C8.24813 34.1681 10.0818 32.3914 12.312 32.4054Z" stroke="white" stroke-width="2" stroke-linecap="round" stroke-linejoin="round"/>
<path d="M8.22696 36.8715L5.02685 36.8576C4.02859 36.8576 3.22148 36.0493 3.22856 35.0669L3.27104 29.7926C3.29228 27.2077 4.78614 26.7269 5.6782 26.6712C6.07468 26.6433 6.62691 26.6364 7.31365 26.6433C8.04288 26.6433 8.75795 26.6712 9.13318 26.6782C15.7812 21.2088 16.0644 21.2088 16.3617 21.2157C16.4113 21.2157 16.6379 21.2157 16.9919 21.2018C18.6273 21.1669 22.9602 21.0694 26.309 21.0903C29.587 21.1112 30.3799 21.2366 30.6985 21.3481C32.0012 21.787 38.2527 26.3368 39.9236 27.563L45.368 27.6048C47.5486 27.6188 50.7771 30.0852 50.7629 32.5935L50.7346 36.5022C50.7346 36.8785 50.4231 37.178 50.0407 37.1711L46.4442 37.1502" stroke="white" stroke-width="2" stroke-linecap="round" stroke-linejoin="round"/>
<path d="M38.3304 37.0805L16.2979 36.9342" stroke="white" stroke-width="2" stroke-linecap="round" stroke-linejoin="round"/>
<path d="M35.8668 27.5491L24.3479 27.4794C24.0293 27.4794 23.7673 27.2565 23.739 26.9639L23.2222 24.2535" stroke="white" stroke-width="2" stroke-linecap="round" stroke-linejoin="round"/>
<path d="M24.3477 27.4794L14.6624 27.5004C14.4075 27.5004 14.181 27.354 14.0889 27.138C13.9969 26.9221 14.0606 26.6712 14.2518 26.5179" stroke="white" stroke-width="2" stroke-linecap="round" stroke-linejoin="round"/>
<path d="M45.4173 18.6378C45.6793 15.4189 45.5518 15.2168 45.5518 15.2168L38.9463 12.4368" stroke="white" stroke-width="2" stroke-linecap="round" stroke-linejoin="round"/>
</svg>
