<svg width="59" height="45" viewBox="0 0 59 45" fill="none" xmlns="http://www.w3.org/2000/svg">
<path d="M24.5836 28.75H8.60441C6.56399 28.75 4.91691 27.075 4.91691 25V18.75C4.91691 18.125 4.99066 17.3875 5.12587 17.1875L6.41649 15.225C6.88357 14.5 6.51482 13.525 5.69128 13.325L2.47087 12.5C1.79482 12.5 1.2417 11.9375 1.2417 11.25V8.75C1.2417 8.0625 1.79482 7.5 2.47087 7.5H7.94066C8.34628 7.5 8.73961 7.7125 8.96086 8.0625L10.5834 10.5375C10.8169 10.875 13.2261 12.5 14.7379 12.5H25.8004" stroke="white" stroke-width="2" stroke-miterlimit="10"/>
<path d="M41.6195 9.63751C41.6195 9.63751 39.7881 4.85001 39.4439 4.03751C38.9645 2.91251 37.9689 2.56251 36.7275 2.30001C34.2814 1.77501 31.2577 1.26251 25.8125 1.26251C20.3672 1.26251 17.3312 1.78751 14.8975 2.30001C13.656 2.56251 12.6604 2.91251 12.181 4.03751C11.8368 4.85001 10.0054 9.63751 10.0054 9.63751" stroke="white" stroke-width="2" stroke-miterlimit="10"/>
<path d="M8.604 17.5C10.1773 19.1 12.3161 20 14.5409 20H17.2082" stroke="white" stroke-width="2" stroke-miterlimit="10"/>
<path d="M6.146 27.5V32.5C6.146 33.1875 6.69912 33.75 7.37516 33.75H15.9793C16.6554 33.75 17.2085 33.1875 17.2085 32.5V28.75" stroke="white" stroke-width="2" stroke-miterlimit="10"/>
<path d="M25.8127 23.75H17.2085" stroke="white" stroke-width="2" stroke-miterlimit="10"/>
<path d="M46.7083 18.75C46.7083 18.125 46.6346 17.3875 46.4994 17.1875L45.2088 15.225C44.7417 14.5 45.1104 13.525 45.934 13.325L49.1544 12.5C49.8304 12.5 50.3835 11.9375 50.3835 11.25V8.75C50.3835 8.0625 49.8304 7.5 49.1544 7.5H43.6723C43.2667 7.5 42.8733 7.7125 42.6521 8.0625L41.0296 10.5375C40.796 10.875 38.3869 12.5 36.875 12.5H25.8125" stroke="white" stroke-width="2" stroke-miterlimit="10"/>
<path d="M43.0207 17.5C41.4473 19.1 39.3086 20 37.0838 20H34.4165" stroke="white" stroke-width="2" stroke-miterlimit="10"/>
<path d="M25.8125 23.75H34.4167" stroke="white" stroke-width="2" stroke-miterlimit="10"/>
<path d="M52.8542 17.5L36.875 33.6L30.7292 27.35L25.8125 32.35L36.666 43.75L57.7708 22.5L52.8542 17.5Z" stroke="white" stroke-width="2" stroke-linejoin="round"/>
</svg>
