<svg width="60" height="57" viewBox="0 0 60 57" fill="none" xmlns="http://www.w3.org/2000/svg">
<path d="M23.8252 41.8169C24.8752 42.6393 26.1627 43.0822 27.5002 43.0822H31.2502" stroke="white" stroke-width="2" stroke-miterlimit="10"/>
<path d="M51.175 41.8169C50.125 42.6393 48.8375 43.0822 47.5 43.0822H43.75" stroke="white" stroke-width="2" stroke-miterlimit="10"/>
<path d="M20 49.4084V54.4695C20 55.1654 20.5625 55.7347 21.25 55.7347H28.75C29.4375 55.7347 30 55.1654 30 54.4695V50.6737" stroke="white" stroke-width="2" stroke-linejoin="round"/>
<path d="M57.5 32.9601H52.5L50 36.7559H25L22.5 32.9601H17.5C16.8125 32.9601 16.25 33.5295 16.25 34.2253V36.7559C16.25 37.4518 16.8125 38.0211 17.5 38.0211L21.25 39.2864L19.3125 42.2218C18.9375 42.7785 18.75 43.4364 18.75 44.1197V48.1432C18.75 49.535 19.875 50.6737 21.25 50.6737H53.75C55.125 50.6737 56.25 49.535 56.25 48.1432V44.1197C56.25 43.4491 56.05 42.7912 55.6875 42.2218L53.75 39.2864L57.5 38.0211C58.1875 38.0211 58.75 37.4518 58.75 36.7559V34.2253C58.75 33.5295 58.1875 32.9601 57.5 32.9601V32.9601Z" stroke="white" stroke-width="2" stroke-linejoin="round"/>
<path d="M51.25 35.4906C51.25 35.4906 49.15 31.2393 48.75 30.4296C48.075 29.0884 46.6625 27.899 45 27.899H30C28.3375 27.899 26.925 29.0884 26.25 30.4296C25.85 31.2267 23.75 35.4906 23.75 35.4906" stroke="white" stroke-width="2" stroke-miterlimit="10"/>
<path d="M55 49.4084V54.4695C55 55.1654 54.4375 55.7347 53.75 55.7347H46.25C45.5625 55.7347 45 55.1654 45 54.4695V50.6737" stroke="white" stroke-width="2" stroke-linejoin="round"/>
<path d="M8.2373 33.6938C8.2373 33.6938 8.6248 34.0608 8.8248 34.2253C9.8748 35.035 11.1623 35.4905 12.4998 35.4905" stroke="white" stroke-width="2" stroke-miterlimit="10"/>
<path d="M5 41.8169V45.6127C5 46.3086 5.5625 46.8779 6.25 46.8779H11.25C11.9375 46.8779 12.5 46.3086 12.5 45.6127V41.8169" stroke="white" stroke-width="2" stroke-linejoin="round"/>
<path d="M22.5 27.8991H10L7.5 24.1033H2.5C1.8125 24.1033 1.25 24.6726 1.25 25.3685V27.8991C1.25 28.5949 1.8125 29.1643 2.5 29.1643L6.25 30.4296L5.0125 32.3148C4.1875 33.5674 3.75 35.0225 3.75 36.5281V39.2864C3.75 40.6782 4.875 41.8169 6.25 41.8169H16.25" stroke="white" stroke-width="2" stroke-linejoin="round"/>
<path d="M37.5125 24.1033C36.9875 23.0278 36.4375 21.9397 36.25 21.5728C35.2 19.6369 32.9125 19.0422 31.25 19.0422H16.25C14.5875 19.0422 12.3 19.6369 11.25 21.5728C10.825 22.3572 8.75 26.6338 8.75 26.6338" stroke="white" stroke-width="2" stroke-miterlimit="10"/>
<path d="M31.25 46.8779H43.75" stroke="white" stroke-width="2" stroke-miterlimit="10"/>
<path d="M36.4502 15.0566L37.5502 6.1618L41.9502 11.7289L48.5377 3.93494L47.4377 13.9432L56.2252 11.7289L50.7377 18.3969L56.0877 21.6612L48.5377 22.8379" stroke="white" stroke-width="2" stroke-miterlimit="10"/>
</svg>
