<svg width="79" height="43" viewBox="0 0 79 43" fill="none" xmlns="http://www.w3.org/2000/svg">
<path d="M47.2742 22.9045C42.7023 21.5493 37.8449 21.1972 32.8399 21.8615L32.4388 21.9147L31.9849 26.9169L36.0755 27.1893C38.8539 27.3719 41.6099 27.5546 44.3642 27.744C47.1106 27.9333 49.8569 28.1293 52.6032 28.3269L56.5928 28.6109L56.7965 27.734L56.5366 27.5281C53.9876 25.5086 50.959 23.9956 47.2726 22.9028L47.2742 22.9045ZM52.6738 27.2823C49.9259 27.0863 47.1795 26.8887 44.4316 26.6993C41.6756 26.51 38.9197 26.3273 36.1397 26.143L33.0869 25.9404L33.3677 22.8463C38.0951 22.2717 42.6766 22.6288 46.9951 23.9076C49.9596 24.7861 52.4781 25.942 54.6501 27.4218L52.6738 27.2806V27.2823Z" fill="white" stroke="white" stroke-width="0.4"/>
<path d="M77.8701 39.665C77.7627 39.4408 77.6295 39.2498 77.4996 39.0654L77.4081 38.9342C77.0953 38.4759 77.052 38.0989 77.267 37.6687C77.3504 37.501 77.4194 37.325 77.4883 37.1489C77.5317 37.0376 77.575 36.9264 77.6231 36.8168C78.191 35.543 77.9552 34.3555 76.9413 33.3823C75.8152 32.3028 74.7035 31.4159 73.5437 30.6719C71.5096 29.3649 69.1595 28.2538 66.357 27.2773C64.5828 26.6578 62.6562 26.1397 60.5949 26.5366C60.0334 26.6445 59.4864 26.5416 58.9715 26.231C56.801 24.9223 54.3803 23.7183 51.3501 22.4428C48.2075 21.1208 45.2286 20.3602 42.2432 20.1194C38.6499 19.8287 34.8143 20.0413 30.5168 20.7654C28.6864 21.0743 26.8352 21.4264 25.0449 21.7685C24.1145 21.9462 23.1825 22.1239 22.2505 22.2967C20.2405 22.667 15.2708 23.3828 11.286 23.7598C11.2748 23.3845 11.2619 22.9809 11.2523 22.6653C12.0672 22.6819 12.8051 22.6969 12.9319 22.7118C12.9896 22.7185 13.0426 22.7218 13.0939 22.7218C13.426 22.7218 13.6297 22.584 13.7452 22.4594C14.0612 22.1189 13.9826 21.6174 13.9585 21.453C13.9184 21.1939 13.888 21.0976 13.8382 20.9946C13.8286 20.9647 13.819 20.9149 13.8045 20.8169C13.6955 20.1144 13.3714 19.7889 12.6864 19.6975L7.72796 19.0266C7.11356 18.9419 6.79754 19.0465 6.54569 19.4733L6.29865 19.4385C5.80136 19.3671 5.30406 19.2956 4.80356 19.2375C4.56134 19.2076 4.25173 19.2026 4.00309 19.4202C3.75765 19.6361 3.71273 19.945 3.7015 20.1908C3.69188 20.3818 3.68386 20.4997 3.67744 20.591C3.663 20.802 3.65659 20.9132 3.66621 21.3151C3.68867 22.285 4.45065 22.3913 4.85971 22.4478C5.37465 22.5192 6.69167 22.564 8.13221 22.5989C8.14344 22.9892 8.16109 23.5505 8.17552 23.9657C6.97721 24.0122 5.98584 24.0205 5.44684 24.0205C5.25273 24.0205 5.10515 24.0205 5.01211 24.0239C4.76667 24.0288 4.48915 24.0338 4.21323 24.1069C3.10475 24.3959 2.80798 25.4123 2.62992 26.0201C2.35721 26.9518 2.08771 27.8868 1.81821 28.8185L1.24873 30.7898C0.831648 32.2297 0.940731 33.4985 1.58721 34.6677C1.67223 34.8205 1.71394 35.0846 1.71394 35.4516C1.71394 35.7074 1.68346 35.9698 1.65138 36.2471C1.62411 36.4879 1.59684 36.7287 1.58561 36.9696C1.55673 37.6405 1.84227 38.2085 2.34759 38.4892C2.49677 38.5722 2.64596 38.6552 2.79354 38.7399C3.509 39.1435 4.24692 39.5604 5.04259 39.8327C5.5479 40.0054 6.0885 40.0005 6.60986 40.0005C6.83444 40.0005 7.06384 39.9971 7.29644 40.0104L8.1659 40.0586L7.77448 39.2531C7.04779 37.7534 6.84727 36.2953 7.1649 34.7956C7.48734 33.266 8.26375 32.0238 9.46848 31.1054C11.6229 29.4612 14.435 29.4114 16.6311 30.9758C17.7267 31.7564 18.4967 32.7877 18.917 34.0383C19.517 35.8253 19.3662 37.5608 18.4566 39.3445L18.0732 40.0968L56.2925 40.7644L55.7535 39.934C53.7643 36.8649 54.5953 33.4271 56.4449 31.6169C58.5704 29.5393 61.7242 29.2569 64.116 30.9327C65.34 31.7896 66.1613 32.9339 66.5544 34.3322C67.127 36.3634 66.7886 38.2467 65.5197 40.0901L65.0352 40.7926L65.9528 40.9255C66.0346 40.9405 66.094 40.9471 66.1517 40.9471C69.6344 41.0036 73.1186 41.06 76.6012 41.1132H76.6317C76.8162 41.1132 77.0151 41.0883 77.2237 41.0418C77.567 40.9637 77.8012 40.7926 77.9215 40.5352C78.0402 40.2795 78.0225 39.9872 77.8685 39.6633L77.8701 39.665ZM4.67844 21.35C4.67684 21.3351 4.67523 21.3168 4.67523 21.2902C4.66721 20.9215 4.67202 20.8485 4.68486 20.6691C4.69127 20.5778 4.69929 20.4615 4.70892 20.2805C5.19338 20.3386 5.67783 20.4084 6.16069 20.4764L7.15688 20.616L7.30446 20.2423C7.34456 20.141 7.37184 20.0795 7.39109 20.043C7.42959 20.0446 7.49375 20.0496 7.59802 20.0646L12.5581 20.7339C12.7121 20.7538 12.757 20.777 12.757 20.7737C12.7618 20.782 12.7859 20.8285 12.81 20.983C12.8501 21.2421 12.8805 21.3384 12.9287 21.443C12.9383 21.4729 12.9479 21.5227 12.9624 21.6207C12.9656 21.6373 12.9672 21.6523 12.9688 21.6672C12.6736 21.6456 11.902 21.6307 10.5657 21.6058C8.53004 21.5676 5.742 21.5161 4.99606 21.4131C4.84046 21.3915 4.73619 21.3699 4.68165 21.3517L4.67844 21.35ZM9.14283 22.6222C9.5134 22.6288 9.88075 22.6371 10.2401 22.6438C10.2497 22.9958 10.2641 23.4609 10.277 23.8428C9.90802 23.8711 9.53104 23.9026 9.18294 23.9225C9.1685 23.4974 9.15246 22.9875 9.14283 22.6222ZM76.6173 40.0685C73.3544 40.0204 70.0899 39.9672 66.8303 39.9141C67.865 38.0507 68.0992 36.0777 67.5249 34.04C67.0629 32.4008 66.1068 31.0639 64.6823 30.0674C61.8959 28.116 58.2223 28.4398 55.7519 30.8579C53.7595 32.806 52.7714 36.3584 54.4397 39.6866L19.6934 39.0787C20.4121 37.2951 20.4731 35.4881 19.8699 33.6945C19.3774 32.2281 18.4807 31.024 17.2022 30.1139C14.6467 28.292 11.3758 28.3518 8.86852 30.2634C7.46006 31.3379 6.55371 32.7877 6.17673 34.5731C5.86392 36.0561 5.98102 37.4977 6.53767 38.9558C6.10134 38.9592 5.69067 38.9542 5.35861 38.8412C4.64956 38.5988 3.98223 38.2218 3.2764 37.8232C3.12561 37.7368 2.97321 37.6521 2.82242 37.5691C2.60746 37.4512 2.58661 37.1738 2.59463 37.0194C2.60425 36.8035 2.62831 36.5876 2.65398 36.3717C2.68767 36.0761 2.72296 35.7705 2.72296 35.4549C2.72296 35.0979 2.69729 34.5747 2.46469 34.1496C1.95777 33.2295 1.87756 32.2579 2.21604 31.0921L2.78713 29.1191C3.05663 28.1857 3.32613 27.254 3.59723 26.3224C3.80577 25.6066 3.98865 25.2445 4.45867 25.1216C4.6239 25.0784 4.83084 25.0735 5.03136 25.0701C5.11959 25.0685 5.26075 25.0685 5.44684 25.0685C6.37084 25.0668 8.53165 25.0618 10.9973 24.8393C15.067 24.4723 20.3383 23.71 22.4269 23.3247C23.3606 23.1519 24.2942 22.9742 25.2262 22.7965C27.0116 22.4561 28.858 22.104 30.6772 21.7984C34.8945 21.0876 38.6515 20.88 42.163 21.1623C45.0441 21.3949 47.9236 22.1306 50.9683 23.411C53.952 24.6682 56.3326 25.8507 58.4613 27.1345C59.1912 27.5746 59.9693 27.7207 60.7778 27.5646C62.6129 27.2109 64.3871 27.6942 66.033 28.2688C68.7601 29.2204 71.0428 30.2982 73.0095 31.5604C74.1132 32.2696 75.1735 33.1166 76.2515 34.1496C76.951 34.8205 77.0905 35.5081 76.7023 36.3783C76.6462 36.5029 76.5964 36.6308 76.5467 36.7586C76.4906 36.9048 76.4344 37.0509 76.3654 37.1904C75.9772 37.971 76.0494 38.7615 76.582 39.5388L76.6815 39.6816C76.7681 39.8061 76.8515 39.9241 76.9173 40.0403C76.8082 40.0602 76.7023 40.0685 76.6173 40.0685Z" fill="white" stroke="white" stroke-width="0.4"/>
<path d="M13.1436 30.6486C10.1775 30.6486 7.76318 33.1945 7.76318 36.3251C7.76318 39.4556 10.1775 42.0016 13.1436 42.0016C16.1097 42.0016 18.5223 39.4556 18.5223 36.3251C18.5223 33.1945 16.1097 30.6486 13.1436 30.6486ZM13.1436 40.9553C10.7341 40.9553 8.77381 38.8777 8.77381 36.3251C8.77381 33.7725 10.7341 31.6948 13.1436 31.6948C15.553 31.6948 17.5133 33.7725 17.5133 36.3251C17.5133 38.8777 15.553 40.9553 13.1436 40.9553Z" fill="white" stroke="white" stroke-width="0.4"/>
<path d="M60.6768 30.6486C57.7107 30.6486 55.2964 33.1945 55.2964 36.3251C55.2964 39.4556 57.7091 42.0016 60.6768 42.0016C63.6445 42.0016 66.0555 39.4556 66.0555 36.3251C66.0555 33.1945 63.6429 30.6486 60.6768 30.6486ZM60.6768 40.9553C58.2673 40.9553 56.307 38.8777 56.307 36.3251C56.307 33.7725 58.2673 31.6948 60.6768 31.6948C63.0862 31.6948 65.0465 33.7725 65.0465 36.3251C65.0465 38.8777 63.0862 40.9553 60.6768 40.9553Z" fill="white" stroke="white" stroke-width="0.4"/>
<path d="M22.143 27.5031L25.2872 25.736L24.8059 24.8176L20.8789 27.0248L24.2926 36.0876L44.3639 36.8466L44.4024 35.802L24.9936 35.0679L22.143 27.5031Z" fill="white" stroke="white" stroke-width="0.4"/>
<path d="M69.2497 32.0486C69.2785 32.0619 72.2077 33.3988 73.3884 34.6211L74.1023 33.8821C72.7868 32.5203 69.7822 31.1485 69.6539 31.0903L69.248 32.0486H69.2497Z" fill="white" stroke="white" stroke-width="0.4"/>
<g clip-path="url(#clip0_117_730)">
<path d="M60.9828 7.17497C60.941 7.04082 60.8309 6.94333 60.6977 6.92365L57.3249 6.41028L55.816 3.20571C55.7563 3.0796 55.6343 3 55.4994 3C55.3646 3 55.2425 3.0796 55.1828 3.20571L53.6739 6.40849L50.302 6.92276C50.1688 6.94333 50.0587 7.04082 50.0169 7.17408C49.9751 7.30824 50.0101 7.45492 50.1065 7.5533L52.5474 10.0468L51.9713 13.5671C51.9482 13.7057 52.0029 13.8462 52.1113 13.9284C52.1727 13.975 52.2452 13.9991 52.3186 13.9991C52.375 13.9991 52.4313 13.9848 52.4825 13.9571L55.4994 12.2944L58.5163 13.9571C58.635 14.0224 58.7792 14.0116 58.8876 13.9293C58.996 13.8471 59.0506 13.7066 59.0275 13.568L58.4515 10.0477L60.8923 7.55419C60.9887 7.45581 61.0229 7.30913 60.9819 7.17497H60.9828ZM57.8276 9.65331C57.7448 9.73827 57.7064 9.8608 57.726 9.98065L58.2125 12.9545L55.6641 11.5503C55.5609 11.4939 55.4388 11.4939 55.3356 11.5503L52.7872 12.9545L53.2736 9.98065C53.2933 9.8608 53.2557 9.73827 53.1721 9.65331L51.111 7.54704L53.9607 7.11326C54.0759 7.09537 54.1749 7.02025 54.2261 6.91113L55.5003 4.20563L56.7745 6.91113C56.8257 7.02025 56.9255 7.09627 57.0399 7.11326L59.8895 7.54704L57.8276 9.65331Z" fill="white" stroke="white"/>
</g>
<g clip-path="url(#clip1_117_730)">
<path d="M45.9828 4.17497C45.941 4.04082 45.8309 3.94333 45.6977 3.92365L42.3249 3.41028L40.816 0.205708C40.7563 0.0796 40.6343 0 40.4994 0C40.3646 0 40.2425 0.0796 40.1828 0.205708L38.6739 3.40849L35.302 3.92276C35.1688 3.94333 35.0587 4.04082 35.0169 4.17408C34.9751 4.30824 35.0101 4.45492 35.1065 4.5533L37.5474 7.04683L36.9713 10.5671C36.9482 10.7057 37.0029 10.8462 37.1113 10.9284C37.1727 10.975 37.2452 10.9991 37.3186 10.9991C37.375 10.9991 37.4313 10.9848 37.4825 10.9571L40.4994 9.29441L43.5163 10.9571C43.635 11.0224 43.7792 11.0116 43.8876 10.9293C43.996 10.8471 44.0506 10.7066 44.0275 10.568L43.4515 7.04773L45.8923 4.55419C45.9887 4.45581 46.0229 4.30913 45.9819 4.17497H45.9828ZM42.8276 6.65331C42.7448 6.73827 42.7064 6.8608 42.726 6.98065L43.2125 9.95447L40.6641 8.55029C40.5609 8.49394 40.4388 8.49394 40.3356 8.55029L37.7872 9.95447L38.2736 6.98065C38.2933 6.8608 38.2557 6.73827 38.1721 6.65331L36.111 4.54704L38.9607 4.11326C39.0759 4.09537 39.1749 4.02025 39.2261 3.91113L40.5003 1.20563L41.7745 3.91113C41.8257 4.02025 41.9255 4.09627 42.0399 4.11326L44.8895 4.54704L42.8276 6.65331Z" fill="white" stroke="white"/>
</g>
<g clip-path="url(#clip2_117_730)">
<path d="M29.9828 6.17497C29.941 6.04082 29.8309 5.94333 29.6977 5.92365L26.3249 5.41028L24.816 2.20571C24.7563 2.0796 24.6343 2 24.4994 2C24.3646 2 24.2425 2.0796 24.1828 2.20571L22.6739 5.40849L19.302 5.92276C19.1688 5.94333 19.0587 6.04082 19.0169 6.17408C18.9751 6.30824 19.0101 6.45492 19.1065 6.5533L21.5474 9.04683L20.9713 12.5671C20.9482 12.7057 21.0029 12.8462 21.1113 12.9284C21.1727 12.975 21.2452 12.9991 21.3186 12.9991C21.375 12.9991 21.4313 12.9848 21.4825 12.9571L24.4994 11.2944L27.5163 12.9571C27.635 13.0224 27.7792 13.0116 27.8876 12.9293C27.996 12.8471 28.0506 12.7066 28.0275 12.568L27.4515 9.04773L29.8923 6.55419C29.9887 6.45581 30.0229 6.30913 29.9819 6.17497H29.9828ZM26.8276 8.65331C26.7448 8.73827 26.7064 8.8608 26.726 8.98065L27.2125 11.9545L24.6641 10.5503C24.5609 10.4939 24.4388 10.4939 24.3356 10.5503L21.7872 11.9545L22.2736 8.98065C22.2933 8.8608 22.2557 8.73827 22.1721 8.65331L20.111 6.54704L22.9607 6.11326C23.0759 6.09537 23.1749 6.02025 23.2261 5.91113L24.5003 3.20563L25.7745 5.91113C25.8257 6.02025 25.9255 6.09627 26.0399 6.11326L28.8895 6.54704L26.8276 8.65331Z" fill="white" stroke="white"/>
</g>
<defs>
<clipPath id="clip0_117_730">
<rect width="11" height="11" fill="white" transform="translate(50 3)"/>
</clipPath>
<clipPath id="clip1_117_730">
<rect width="11" height="11" fill="white" transform="translate(35)"/>
</clipPath>
<clipPath id="clip2_117_730">
<rect width="11" height="11" fill="white" transform="translate(19 2)"/>
</clipPath>
</defs>
</svg>
