<svg width="73" height="34" viewBox="0 0 73 34" fill="none" xmlns="http://www.w3.org/2000/svg">
<path d="M13.9143 12.8921V18.4422L5.44189 19.3163" stroke="white" stroke-width="2" stroke-linecap="round" stroke-linejoin="round"/>
<path d="M8.05202 29.2364H2.10141L1.10596 25.7403L2.10141 25.1066V18.0051L4.82232 11.3624C5.26475 10.248 6.37081 9.52694 7.56535 9.52694H15.7723C17.9402 4.28272 21.3247 3.8457 21.3247 3.8457V23.2712H71.8938V29.2146H67.6687" stroke="white" stroke-width="2" stroke-linecap="round" stroke-linejoin="round"/>
<path d="M15.5068 29.2365H52.759" stroke="white" stroke-width="2" stroke-linecap="round" stroke-linejoin="round"/>
<path d="M11.7686 32.9075C13.8211 32.9075 15.485 31.2639 15.485 29.2365C15.485 27.2091 13.8211 25.5656 11.7686 25.5656C9.71612 25.5656 8.05225 27.2091 8.05225 29.2365C8.05225 31.2639 9.71612 32.9075 11.7686 32.9075Z" stroke="white" stroke-width="2" stroke-linecap="round" stroke-linejoin="round"/>
<path d="M63.9302 32.9075C65.9827 32.9075 67.6466 31.2639 67.6466 29.2365C67.6466 27.2091 65.9827 25.5656 63.9302 25.5656C61.8777 25.5656 60.2139 27.2091 60.2139 29.2365C60.2139 31.2639 61.8777 32.9075 63.9302 32.9075Z" stroke="white" stroke-width="2" stroke-linecap="round" stroke-linejoin="round"/>
<path d="M56.4976 32.9075C58.5501 32.9075 60.214 31.2639 60.214 29.2365C60.214 27.2091 58.5501 25.5656 56.4976 25.5656C54.4451 25.5656 52.7812 27.2091 52.7812 29.2365C52.7812 31.2639 54.4451 32.9075 56.4976 32.9075Z" stroke="white" stroke-width="2" stroke-linecap="round" stroke-linejoin="round"/>
<path d="M70.0356 19.6002V1.09253H26.9214V19.6002" stroke="white" stroke-width="2" stroke-linecap="round" stroke-linejoin="round"/>
</svg>
