<svg width="15" height="18" viewBox="0 0 15 18" fill="none" xmlns="http://www.w3.org/2000/svg">
<path d="M0.375 16.5C0.375 17.0523 0.822715 17.5 1.375 17.5C1.92728 17.5 2.375 17.0523 2.375 16.5H0.375ZM12.625 16.5C12.625 17.0523 13.0727 17.5 13.625 17.5C14.1773 17.5 14.625 17.0523 14.625 16.5H12.625ZM2.375 16.5V15.625H0.375V16.5H2.375ZM5.75 12.25H9.25V10.25H5.75V12.25ZM12.625 15.625V16.5H14.625V15.625H12.625ZM10 5.125C10 6.50571 8.88071 7.625 7.5 7.625V9.625C9.98528 9.625 12 7.61028 12 5.125H10ZM7.5 7.625C6.11929 7.625 5 6.50571 5 5.125H3C3 7.61028 5.01472 9.625 7.5 9.625V7.625ZM5 5.125C5 3.74429 6.11929 2.625 7.5 2.625V0.625C5.01472 0.625 3 2.63972 3 5.125H5ZM7.5 2.625C8.88071 2.625 10 3.74429 10 5.125H12C12 2.63972 9.98528 0.625 7.5 0.625V2.625ZM9.25 12.25C11.114 12.25 12.625 13.761 12.625 15.625H14.625C14.625 12.6565 12.2185 10.25 9.25 10.25V12.25ZM2.375 15.625C2.375 13.761 3.88604 12.25 5.75 12.25V10.25C2.78147 10.25 0.375 12.6565 0.375 15.625H2.375Z" fill="white"/>
</svg>
