<svg width="47" height="41" viewBox="0 0 47 41" fill="none" xmlns="http://www.w3.org/2000/svg">
<g clip-path="url(#clip0_108_666)">
<path d="M45.3506 0H1.64939C0.738213 0 0 0.74154 0 1.65682V32.303C0 33.2176 0.738213 33.9598 1.64939 33.9598H28.4475V41L34.2198 36.0302L39.992 41V33.9598H45.3519C46.2624 33.9598 47.0013 33.2182 47.0013 32.303V1.65682C47.0013 0.74217 46.263 0 45.3519 0H45.3506ZM30.921 27.3331C30.921 25.5032 32.3974 24.0201 34.2191 24.0201C36.0409 24.0201 37.5173 25.5032 37.5173 27.3331C37.5173 29.1631 36.0409 30.6461 34.2191 30.6461C32.3974 30.6461 30.921 29.1631 30.921 27.3331ZM43.7019 30.6461H39.9914V27.3331C39.9914 24.1309 37.407 21.5349 34.2191 21.5349C31.0313 21.5349 28.4469 24.1309 28.4469 27.3331V30.6461H3.29815V3.31301H43.7019V30.6461Z" fill="white"/>
<path d="M39.1667 16.1514H8.24573V19.4644H39.1667V16.1514Z" fill="white"/>
<path d="M23.5 22.7776H8.24573V26.0906H23.5V22.7776Z" fill="white"/>
<path d="M19.7469 10.3468C19.8096 10.5388 19.8873 10.7233 19.9769 10.9014C19.6918 11.2344 19.8253 11.862 20.2928 12.3322C20.7609 12.8025 21.3857 12.9359 21.7172 12.6495C21.8945 12.7395 22.0781 12.8182 22.2693 12.8812C22.3031 13.3187 22.8383 13.6668 23.4994 13.6668C24.1606 13.6668 24.6957 13.3187 24.7296 12.8812C24.9207 12.8182 25.1043 12.7402 25.2817 12.6495C25.6125 12.9366 26.238 12.8025 26.7061 12.3322C27.1742 11.8614 27.3077 11.2338 27.0219 10.9014C27.1115 10.7239 27.1899 10.5388 27.2519 10.3468C27.6868 10.3128 28.034 9.77526 28.034 9.11115C28.034 8.44703 27.6868 7.90882 27.2513 7.87546C27.1886 7.68346 27.1109 7.49902 27.0213 7.3215C27.307 6.98913 27.1742 6.3609 26.7054 5.89004C26.2373 5.41918 25.6113 5.28573 25.2804 5.57278C25.1037 5.48276 24.9201 5.40408 24.7289 5.34176C24.6951 4.90426 24.1599 4.55615 23.4988 4.55615C22.8377 4.55615 22.3025 4.90426 22.2686 5.34176C22.0775 5.40471 21.8939 5.48276 21.7166 5.57278C21.3857 5.28573 20.7603 5.41981 20.2921 5.89004C19.824 6.3609 19.6905 6.9885 19.9763 7.32087C19.8867 7.49839 19.809 7.68283 19.7463 7.87483C19.3108 7.90882 18.9642 8.4464 18.9642 9.11052C18.9642 9.77463 19.3114 10.3122 19.7463 10.3462L19.7469 10.3468Z" fill="white"/>
</g>
<defs>
<clipPath id="clip0_108_666">
<path d="M0 0H47V41H0V0Z" fill="white"/>
</clipPath>
</defs>
</svg>
