<svg width="32" height="22" viewBox="0 0 32 22" fill="none" xmlns="http://www.w3.org/2000/svg">
<path d="M2.69996 0H29.3C30.7863 0 32 1.22196 32 2.71823V19.2818C32 20.778 30.7863 22 29.3 22H2.69996C1.21375 22 0 20.778 0 19.2818V2.71823C0 1.22196 1.21375 0 2.69996 0ZM2.71752 1.56714C6.85582 5.7518 10.6344 9.57377 14.5585 13.5405C15.3959 14.3836 16.6032 14.3811 17.443 13.5436C21.3782 9.56243 25.1713 5.72678 29.284 1.56697L2.71752 1.56714ZM30.4386 2.61218L22.0335 11.1161L30.4434 18.731V2.71823L30.4386 2.61218ZM20.9357 12.2261L18.541 14.6492C17.0851 16.0988 14.9149 16.1053 13.4622 14.6475L11.0859 12.2438L2.18137 20.3066C2.33723 20.387 2.51379 20.4329 2.69996 20.4329H29.3C29.4966 20.4329 29.6828 20.3822 29.845 20.293L20.9357 12.2261ZM9.98808 11.1337L1.56141 2.61118L1.5566 2.71823V18.7685L9.98808 11.1337Z" fill="white"/>
</svg>
