<svg width="34" height="34" viewBox="0 0 34 34" fill="none" xmlns="http://www.w3.org/2000/svg">
<g clip-path="url(#clip0_134_679)">
<path d="M17 34C13.9802 34 11.0302 33.2027 8.43833 31.6897L0.52323 33.848L3.11197 26.8068C2.17452 25.4819 1.43515 24.0374 0.91067 22.5045C0.306463 20.7367 0 18.8849 0 17C0 14.7053 0.449729 12.479 1.33611 10.3824C2.19258 8.35798 3.41781 6.53975 4.97878 4.97878C6.53975 3.41781 8.35798 2.19196 10.3824 1.33611C12.479 0.449729 14.7053 0 17 0C19.2947 0 21.521 0.449729 23.6176 1.33611C25.642 2.19258 27.4602 3.41781 29.0212 4.97878C30.5822 6.53975 31.8074 8.35798 32.6639 10.3824C33.5509 12.479 34.0006 14.7053 34.0006 17C34.0006 19.2947 33.5509 21.521 32.6639 23.6176C31.8074 25.642 30.5822 27.4602 29.0212 29.0206C27.4602 30.5816 25.6426 31.8074 23.6176 32.6633C21.521 33.5503 19.2947 34 17 34ZM8.74853 29.5064L9.12289 29.7388C11.4837 31.202 14.2076 31.9756 17 31.9756C25.2571 31.9756 31.975 25.2577 31.975 17.0006C31.975 8.74355 25.2571 2.02503 17 2.02503C8.74293 2.02503 2.02503 8.74293 2.02503 17C2.02503 20.2932 3.07335 23.4177 5.05727 26.0351L5.39176 26.4761L3.77972 30.8612L8.74916 29.5058L8.74853 29.5064Z" fill="white"/>
<path d="M11.1186 8.20723C11.4961 8.06895 11.9247 8.1275 12.2735 8.31749C12.4828 8.43272 12.641 8.61461 12.8092 8.77967C13.6663 9.6374 14.5246 10.4945 15.3817 11.3522C15.6409 11.6151 15.8084 11.9757 15.8041 12.3482C15.8178 12.6559 15.7119 12.9562 15.5493 13.2128C15.4403 13.3567 15.3238 13.4962 15.1911 13.6196C14.7763 14.0363 14.3577 14.4492 13.9453 14.8678C14.0624 15.1207 14.2144 15.3549 14.3477 15.5991C14.4816 15.8458 14.6336 16.0812 14.7838 16.3179C15.3082 17.1763 15.9498 17.9617 16.6668 18.6656C17.3264 19.3128 18.0546 19.8927 18.8444 20.3736C19.3103 20.6782 19.798 20.946 20.2883 21.2101C20.7517 20.7455 21.2151 20.2814 21.6804 19.818C21.8517 19.6448 22.0567 19.5034 22.2896 19.428C22.6422 19.2935 23.0495 19.3178 23.3896 19.4797C23.6575 19.5956 23.8493 19.8236 24.0536 20.0229C24.9014 20.8713 25.751 21.7184 26.5982 22.568C26.861 22.829 27.0105 23.194 27.0211 23.5628V23.6288C27.013 23.8475 26.9432 24.058 26.8548 24.2567C26.6735 24.6155 26.3446 24.8609 26.07 25.1437C25.9423 25.2614 25.8351 25.4066 25.6757 25.4826C25.267 25.784 24.8092 26.022 24.3246 26.1746C24.0997 26.2612 23.8605 26.2961 23.6263 26.3459C23.3672 26.3988 23.1012 26.4075 22.839 26.3795C22.507 26.377 22.1787 26.3253 21.8517 26.2743C21.5615 26.2375 21.2811 26.149 20.9946 26.0905C20.7118 26.002 20.4222 25.9335 20.1475 25.8208C19.7918 25.7161 19.4586 25.5529 19.1147 25.4165C18.8076 25.2708 18.5037 25.1188 18.2009 24.9649C17.7836 24.7239 17.3588 24.4928 16.9633 24.2162C16.4699 23.9091 16.0165 23.5454 15.5512 23.199C15.0404 22.786 14.5433 22.3556 14.0712 21.899C13.6277 21.4967 13.2265 21.0507 12.8079 20.6234C11.6095 19.3396 10.4746 17.968 9.66731 16.3983C9.26492 15.5916 8.94413 14.7333 8.81394 13.8376C8.69995 13.2022 8.68874 12.5494 8.75788 11.9091C8.82889 11.047 9.13162 10.2011 9.648 9.50534C9.69347 9.43683 9.71963 9.35523 9.7813 9.29792C9.99682 9.08178 10.2123 8.86563 10.4279 8.64949C10.6228 8.45452 10.8502 8.28136 11.1193 8.20786L11.1186 8.20723Z" fill="white"/>
</g>
<defs>
<clipPath id="clip0_134_679">
<rect width="34" height="34" fill="white"/>
</clipPath>
</defs>
</svg>
