<svg width="28" height="28" viewBox="0 0 28 28" fill="none" xmlns="http://www.w3.org/2000/svg">
<path d="M27.3054 13.7824C27.3054 6.17061 21.1929 0 13.6527 0C6.11251 0 0 6.17061 0 13.7824C0 21.3943 6.11251 27.5649 13.6527 27.5649C21.1929 27.5649 27.3054 21.3943 27.3054 13.7824Z" fill="#47B590"/>
<path d="M14.9899 15.4192V23.8314H11.162V15.4192H7.98191V12.0083H11.162V10.7643C11.162 6.15687 13.0657 3.73427 17.1011 3.73427C18.3371 3.73427 18.647 3.93342 19.3265 4.09765V7.47517C18.5653 7.33844 18.3526 7.26933 17.5649 7.26933C16.6271 7.26933 16.1309 7.53388 15.676 8.0615C15.221 8.58913 14.9936 9.5054 14.9936 10.8111V12.0083H19.3301L18.1656 15.4177L14.9899 15.4192Z" fill="white"/>
</svg>
