<svg width="28" height="28" viewBox="0 0 28 28" fill="none" xmlns="http://www.w3.org/2000/svg">
<path d="M27.6527 13.7824C27.6527 6.17061 21.5401 0 14 0C6.4598 0 0.34729 6.17061 0.34729 13.7824C0.34729 21.3943 6.4598 27.5649 14 27.5649C21.5401 27.5649 27.6527 21.3943 27.6527 13.7824Z" fill="#47B590"/>
<path d="M19.9667 22.8297H8.03395C7.23972 22.8289 6.47821 22.5101 5.91653 21.9433C5.35485 21.3764 5.03887 20.6077 5.0379 19.8059V7.75982C5.03887 6.95803 5.35485 6.18938 5.91653 5.6225C6.47821 5.05562 7.23972 4.73682 8.03395 4.73603H19.9667C20.7608 4.73701 21.5221 5.05591 22.0836 5.62276C22.6451 6.18962 22.961 6.95816 22.962 7.75982V19.8059C22.961 20.6076 22.6451 21.3761 22.0836 21.943C21.5221 22.5099 20.7608 22.8287 19.9667 22.8297ZM8.03395 5.72588C7.49971 5.72647 6.98749 5.94092 6.60965 6.32221C6.23182 6.7035 6.01919 7.2205 6.01841 7.75982V19.8059C6.01919 20.3453 6.23182 20.8623 6.60965 21.2435C6.98749 21.6248 7.49971 21.8393 8.03395 21.8399H19.9667C20.5008 21.8393 21.013 21.6248 21.3907 21.2435C21.7684 20.8622 21.9809 20.3452 21.9815 19.8059V7.75982C21.9809 7.22056 21.7684 6.70357 21.3907 6.32226C21.013 5.94095 20.5008 5.72647 19.9667 5.72588H8.03395Z" fill="white"/>
<path d="M14.0003 18.425C13.3961 18.4267 12.7975 18.3074 12.2393 18.074C11.681 17.8405 11.1742 17.4976 10.7481 17.0651C10.3195 16.6352 9.97976 16.1237 9.74851 15.5603C9.51727 14.9968 9.39915 14.3926 9.40099 13.7827C9.39934 13.1727 9.51755 12.5685 9.74878 12.0049C9.98002 11.4414 10.3197 10.9297 10.7481 10.4996C11.1743 10.0673 11.6812 9.72462 12.2394 9.49133C12.7977 9.25803 13.3962 9.13875 14.0003 9.1404C14.6044 9.13885 15.2027 9.25817 15.7608 9.49147C16.3189 9.72476 16.8257 10.0674 17.2518 10.4996C17.6803 10.9297 18.0199 11.4414 18.2512 12.0049C18.4824 12.5685 18.6006 13.1727 18.599 13.7827C18.6008 14.3926 18.4827 14.9968 18.2514 15.5603C18.0202 16.1237 17.6804 16.6352 17.2518 17.0651C16.8258 17.4975 16.3191 17.8404 15.761 18.0738C15.2029 18.3072 14.6045 18.4266 14.0003 18.425ZM14.0003 10.1302C13.041 10.1312 12.1212 10.5163 11.4428 11.2011C10.7643 11.8858 10.3827 12.8143 10.3815 13.7827C10.3833 14.7508 10.7652 15.6787 11.4436 16.3629C12.1219 17.0472 13.0414 17.432 14.0003 17.433C14.9596 17.4318 15.8791 17.0466 16.5574 16.3619C17.2357 15.6772 17.6173 14.7488 17.6184 13.7805C17.6167 12.8125 17.2348 11.8848 16.5566 11.2005C15.8784 10.5163 14.9592 10.1314 14.0003 10.1302Z" fill="white"/>
<path d="M20.5887 7.25229C20.5887 7.48879 20.4957 7.71562 20.33 7.88285C20.1643 8.05009 19.9397 8.14404 19.7054 8.14404C19.4711 8.14404 19.2464 8.05009 19.0807 7.88285C18.9151 7.71562 18.822 7.48879 18.822 7.25229C18.822 7.01578 18.9151 6.78896 19.0807 6.62172C19.2464 6.45448 19.4711 6.36053 19.7054 6.36053C19.9397 6.36053 20.1643 6.45448 20.33 6.62172C20.4957 6.78896 20.5887 7.01578 20.5887 7.25229Z" fill="white"/>
</svg>
