<svg width="28" height="28" viewBox="0 0 28 28" fill="none" xmlns="http://www.w3.org/2000/svg">
<path d="M28 13.7824C28 6.17061 21.8875 0 14.3473 0C6.80714 0 0.694641 6.17061 0.694641 13.7824C0.694641 21.3943 6.80714 27.5649 14.3473 27.5649C21.8875 27.5649 28 21.3943 28 13.7824Z" fill="#47B590"/>
<path d="M21.14 7.49877H7.55391C5.73905 7.49877 4.26782 8.98399 4.26782 10.8161V16.7492C4.26782 18.5813 5.73905 20.0666 7.55391 20.0666H21.14C22.9548 20.0666 24.4261 18.5813 24.4261 16.7492V10.8161C24.4261 8.98399 22.9548 7.49877 21.14 7.49877Z" fill="white"/>
<path d="M16.9631 13.7828L11.7307 10.733V16.8318L16.9631 13.7828Z" fill="#47B590"/>
</svg>
